<?xml version="1.0" encoding="UTF-8"?>
<svg xmlns="http://www.w3.org/2000/svg" version="1.1" viewBox="0 0 1000 800">
  <!-- Generator: Adobe Illustrator 30.4.0, SVG Export Plug-In . SVG Version: 2.1.4 Build 226)  -->
  <defs>
    <style>
      .st0 {
        stroke-width: 156.75px;
      }

      .st0, .st1, .st2, .st3, .st4, .st5, .st6, .st7 {
        fill: none;
      }

      .st0, .st2, .st6 {
        stroke: #910f0f;
      }

      .st8 {
        fill: #fff;
        font-size: 26.96px;
      }

      .st8, .st9, .st10, .st11 {
        isolation: isolate;
      }

      .st8, .st10, .st11 {
        font-weight: 700;
      }

      .st1, .st4 {
        stroke-width: 16.5px;
      }

      .st1, .st5 {
        stroke: #f4b0a5;
      }

      .st12 {
        fill: #fff1f2;
      }

      .st2 {
        stroke-width: 239.25px;
      }

      .st3 {
        stroke: #e38274;
      }

      .st3, .st5, .st7 {
        stroke-width: 8.25px;
      }

      .st13 {
        font-family: Arial-BoldMT, Arial;
      }

      .st4, .st7 {
        stroke: #e0a8ae;
      }

      .st14 {
        mix-blend-mode: multiply;
      }

      .st10 {
        font-size: 12px;
      }

      .st10, .st15, .st11 {
        font-family: Calibri-Bold, Calibri;
      }

      .st6 {
        stroke-width: 99px;
      }

      .st11 {
        font-size: 14px;
      }
    </style>
  </defs>
  <g class="st9">
    <g id="Capa_2">
      <rect class="st12" width="998.42" height="799.32"/>
    </g>
    <g id="Capa_1">
      <g>
        <rect x="985" y="10" width="5" height="8.25"/>
        <rect x="985" y="23.25" width="5" height="8.25"/>
        <rect x="985" y="36.5" width="5" height="8.25"/>
        <rect x="985" y="49.75" width="5" height="8.25"/>
        <rect x="985" y="63" width="5" height="8.25"/>
        <rect x="985" y="76.25" width="5" height="8.25"/>
        <rect x="985" y="89.5" width="5" height="8.25"/>
        <rect x="985" y="102.75" width="5" height="8.25"/>
        <rect x="985" y="116" width="5" height="8.25"/>
        <rect x="985" y="129.25" width="5" height="8.25"/>
        <rect x="985" y="142.5" width="5" height="8.25"/>
        <rect x="985" y="155.75" width="5" height="8.25"/>
        <rect x="985" y="169" width="5" height="8.25"/>
        <rect x="985" y="182.25" width="5" height="8.25"/>
        <rect x="985" y="195.5" width="5" height="8.25"/>
        <rect x="985" y="208.75" width="5" height="8.25"/>
        <rect x="985" y="222" width="5" height="8.25"/>
        <rect x="985" y="235.25" width="5" height="8.25"/>
        <rect x="985" y="248.5" width="5" height="8.25"/>
        <rect x="985" y="261.75" width="5" height="8.25"/>
        <rect x="985" y="275" width="5" height="8.25"/>
        <rect x="985" y="288.25" width="5" height="8.25"/>
        <rect x="985" y="301.5" width="5" height="8.25"/>
        <rect x="985" y="314.75" width="5" height="8.25"/>
        <rect x="985" y="328" width="5" height="8.25"/>
        <rect x="985" y="341.25" width="5" height="8.25"/>
        <rect x="985" y="354.5" width="5" height="8.25"/>
        <rect x="985" y="367.75" width="5" height="8.25"/>
        <rect x="985" y="381" width="5" height="8.25"/>
        <rect x="985" y="394.25" width="5" height="8.25"/>
        <rect x="985" y="407.5" width="5" height="8.25"/>
        <rect x="985" y="420.75" width="5" height="8.25"/>
        <rect x="985" y="434" width="5" height="8.25"/>
        <rect x="985" y="447.25" width="5" height="8.25"/>
        <rect x="985" y="460.5" width="5" height="8.25"/>
        <rect x="985" y="473.75" width="5" height="8.25"/>
        <rect x="985" y="487" width="5" height="8.25"/>
        <rect x="985" y="500.25" width="5" height="8.25"/>
        <rect x="985" y="513.5" width="5" height="8.25"/>
        <rect x="985" y="526.75" width="5" height="8.25"/>
        <rect x="985" y="540" width="5" height="8.25"/>
        <rect x="985" y="553.25" width="5" height="8.25"/>
        <rect x="985" y="566.5" width="5" height="8.25"/>
        <rect x="985" y="579.75" width="5" height="8.25"/>
        <rect x="985" y="593" width="5" height="8.25"/>
        <rect x="985" y="606.25" width="5" height="8.25"/>
        <rect x="985" y="619.5" width="5" height="8.25"/>
        <rect x="985" y="632.75" width="5" height="8.25"/>
        <rect x="985" y="646" width="5" height="8.25"/>
        <rect x="985" y="659.25" width="5" height="8.25"/>
        <rect x="985" y="672.5" width="5" height="8.25"/>
        <rect x="985" y="685.75" width="5" height="8.25"/>
        <rect x="985" y="699" width="5" height="8.25"/>
        <rect x="985" y="712.25" width="5" height="8.25"/>
        <rect x="985" y="725.5" width="5" height="8.25"/>
        <rect x="985" y="738.75" width="5" height="8.25"/>
        <rect x="985" y="752" width="5" height="16.5"/>
        <rect x="985" y="773.5" width="5" height="16.5"/>
        <rect x="497.5" y="147.5" width="5" height="99"/>
        <rect x="497.5" y="251.5" width="5" height="156.75"/>
        <rect x="497.5" y="413.25" width="5" height="239.25"/>
        <rect x="10" y="152.5" width="5" height="495"/>
      </g>
      <g>
        <g class="st14">
          <path class="st6" d="M15,202c241.25,0,241.25-5,482.5-5"/>
        </g>
        <g class="st14">
          <path class="st0" d="M15,329.88h482.5"/>
        </g>
        <g class="st14">
          <path class="st2" d="M15,527.88c241.25,0,241.25,5,482.5,5"/>
        </g>
        <g class="st14">
          <path class="st3" d="M502.5,151.62c241.25,0,241.25-137.5,482.5-137.5"/>
        </g>
        <g class="st14">
          <path class="st3" d="M502.5,159.88c241.25,0,241.25-132.5,482.5-132.5"/>
        </g>
        <g class="st14">
          <path class="st5" d="M502.5,255.62c241.25,0,241.25-215,482.5-215"/>
        </g>
        <g class="st14">
          <path class="st7" d="M502.5,417.38c241.25,0,241.25-363.5,482.5-363.5"/>
        </g>
        <g class="st14">
          <path class="st5" d="M502.5,263.88c241.25,0,241.25-196.75,482.5-196.75"/>
        </g>
        <g class="st14">
          <path class="st7" d="M502.5,425.62c241.25,0,241.25-345.25,482.5-345.25"/>
        </g>
        <g class="st14">
          <path class="st7" d="M502.5,433.88c241.25,0,241.25-340.25,482.5-340.25"/>
        </g>
        <g class="st14">
          <path class="st7" d="M502.5,442.12c241.25,0,241.25-335.25,482.5-335.25"/>
        </g>
        <g class="st14">
          <path class="st5" d="M502.5,272.12c241.25,0,241.25-152,482.5-152"/>
        </g>
        <g class="st14">
          <path class="st7" d="M502.5,450.38c241.25,0,241.25-317,482.5-317"/>
        </g>
        <g class="st14">
          <path class="st3" d="M502.5,168.12c241.25,0,241.25-21.5,482.5-21.5"/>
        </g>
        <g class="st14">
          <path class="st5" d="M502.5,280.38c241.25,0,241.25-120.5,482.5-120.5"/>
        </g>
        <g class="st14">
          <path class="st7" d="M502.5,458.62c241.25,0,241.25-285.5,482.5-285.5"/>
        </g>
        <g class="st14">
          <path class="st7" d="M502.5,466.88c241.25,0,241.25-280.5,482.5-280.5"/>
        </g>
        <g class="st14">
          <path class="st7" d="M502.5,475.12c241.25,0,241.25-275.5,482.5-275.5"/>
        </g>
        <g class="st14">
          <path class="st7" d="M502.5,483.38c241.25,0,241.25-270.5,482.5-270.5"/>
        </g>
        <g class="st14">
          <path class="st7" d="M502.5,491.62c241.25,0,241.25-265.5,482.5-265.5"/>
        </g>
        <g class="st14">
          <path class="st7" d="M502.5,499.88c241.25,0,241.25-260.5,482.5-260.5"/>
        </g>
        <g class="st14">
          <path class="st7" d="M502.5,508.12c241.25,0,241.25-255.5,482.5-255.5"/>
        </g>
        <g class="st14">
          <path class="st7" d="M502.5,516.38c241.25,0,241.25-250.5,482.5-250.5"/>
        </g>
        <g class="st14">
          <path class="st7" d="M502.5,524.62c241.25,0,241.25-245.5,482.5-245.5"/>
        </g>
        <g class="st14">
          <path class="st5" d="M502.5,288.62c241.25,0,241.25,3.75,482.5,3.75"/>
        </g>
        <g class="st14">
          <path class="st7" d="M502.5,532.88c241.25,0,241.25-227.25,482.5-227.25"/>
        </g>
        <g class="st14">
          <path class="st7" d="M502.5,541.12c241.25,0,241.25-222.25,482.5-222.25"/>
        </g>
        <g class="st14">
          <path class="st7" d="M502.5,549.38c241.25,0,241.25-217.25,482.5-217.25"/>
        </g>
        <g class="st14">
          <path class="st4" d="M502.5,644.25c241.25,0,241.25,116,482.5,116"/>
        </g>
        <g class="st14">
          <path class="st7" d="M502.5,557.62c241.25,0,241.25-212.25,482.5-212.25"/>
        </g>
        <g class="st14">
          <path class="st5" d="M502.5,296.88c241.25,0,241.25,61.75,482.5,61.75"/>
        </g>
        <g class="st14">
          <path class="st5" d="M502.5,305.12c241.25,0,241.25,66.75,482.5,66.75"/>
        </g>
        <g class="st14">
          <path class="st7" d="M502.5,565.88c241.25,0,241.25-180.75,482.5-180.75"/>
        </g>
        <g class="st14">
          <path class="st5" d="M502.5,313.38c241.25,0,241.25,85,482.5,85"/>
        </g>
        <g class="st14">
          <path class="st5" d="M502.5,321.62c241.25,0,241.25,90,482.5,90"/>
        </g>
        <g class="st14">
          <path class="st7" d="M502.5,574.12c241.25,0,241.25-149.25,482.5-149.25"/>
        </g>
        <g class="st14">
          <path class="st3" d="M502.5,176.38c241.25,0,241.25,261.75,482.5,261.75"/>
        </g>
        <g class="st14">
          <path class="st5" d="M502.5,329.88c241.25,0,241.25,121.5,482.5,121.5"/>
        </g>
        <g class="st14">
          <path class="st3" d="M502.5,184.62c241.25,0,241.25,280,482.5,280"/>
        </g>
        <g class="st14">
          <path class="st3" d="M502.5,192.88c241.25,0,241.25,285,482.5,285"/>
        </g>
        <g class="st14">
          <path class="st7" d="M502.5,582.38c241.25,0,241.25-91.25,482.5-91.25"/>
        </g>
        <g class="st14">
          <path class="st1" d="M502.5,400c241.25,0,241.25,381.75,482.5,381.75"/>
        </g>
        <g class="st14">
          <path class="st5" d="M502.5,338.12c241.25,0,241.25,166.25,482.5,166.25"/>
        </g>
        <g class="st14">
          <path class="st7" d="M502.5,590.62c241.25,0,241.25-73,482.5-73"/>
        </g>
        <g class="st14">
          <path class="st5" d="M502.5,346.38c241.25,0,241.25,184.5,482.5,184.5"/>
        </g>
        <g class="st14">
          <path class="st3" d="M502.5,201.12c241.25,0,241.25,343,482.5,343"/>
        </g>
        <g class="st14">
          <path class="st7" d="M502.5,598.88c241.25,0,241.25-41.5,482.5-41.5"/>
        </g>
        <g class="st14">
          <path class="st3" d="M502.5,209.38c241.25,0,241.25,361.25,482.5,361.25"/>
        </g>
        <g class="st14">
          <path class="st3" d="M502.5,217.62c241.25,0,241.25,366.25,482.5,366.25"/>
        </g>
        <g class="st14">
          <path class="st3" d="M502.5,225.88c241.25,0,241.25,371.25,482.5,371.25"/>
        </g>
        <g class="st14">
          <path class="st3" d="M502.5,234.12c241.25,0,241.25,376.25,482.5,376.25"/>
        </g>
        <g class="st14">
          <path class="st5" d="M502.5,354.62c241.25,0,241.25,269,482.5,269"/>
        </g>
        <g class="st14">
          <path class="st7" d="M502.5,607.12c241.25,0,241.25,29.75,482.5,29.75"/>
        </g>
        <g class="st14">
          <path class="st5" d="M502.5,362.88c241.25,0,241.25,287.25,482.5,287.25"/>
        </g>
        <g class="st14">
          <path class="st5" d="M502.5,371.12c241.25,0,241.25,292.25,482.5,292.25"/>
        </g>
        <g class="st14">
          <path class="st5" d="M502.5,379.38c241.25,0,241.25,297.25,482.5,297.25"/>
        </g>
        <g class="st14">
          <path class="st7" d="M502.5,615.38c241.25,0,241.25,74.5,482.5,74.5"/>
        </g>
        <g class="st14">
          <path class="st5" d="M502.5,387.62c241.25,0,241.25,315.5,482.5,315.5"/>
        </g>
        <g class="st14">
          <path class="st3" d="M502.5,242.38c241.25,0,241.25,474,482.5,474"/>
        </g>
        <g class="st14">
          <path class="st7" d="M502.5,623.62c241.25,0,241.25,106,482.5,106"/>
        </g>
        <g class="st14">
          <path class="st7" d="M502.5,631.88c241.25,0,241.25,111,482.5,111"/>
        </g>
      </g>
      <text class="st10" transform="translate(753.5 16.61)"><tspan x="0" y="0">Análisis de problemas informáticos en Diseño</tspan></text>
      <text class="st10" transform="translate(888.55 29.86)"><tspan x="0" y="0">Animación Digital</tspan></text>
      <text class="st10" transform="translate(844.07 43.11)"><tspan x="0" y="0">Color, semiótica y lenguaje</tspan></text>
      <text class="st10" transform="translate(725.72 56.36)"><tspan x="0" y="0">Contingencia social y diseño centrado en el usuario</tspan></text>
      <text class="st10" transform="translate(739.58 69.61)"><tspan x="0" y="0">Creación y Diseño de personajes para animación</tspan></text>
      <text class="st10" transform="translate(875.19 82.86)"><tspan x="0" y="0">Creatividad y diseño</tspan></text>
      <text class="st10" transform="translate(821.84 96.11)"><tspan x="0" y="0">Cultura visual en Latinoamérica</tspan></text>
      <text class="st10" transform="translate(782.94 109.36)"><tspan x="0" y="0">Diseño de Contexto y el viaje del cliente</tspan></text>
      <text class="st10" transform="translate(800.71 122.61)"><tspan x="0" y="0">Diseño de ediciones experimentales</tspan></text>
      <text class="st10" transform="translate(802.93 135.86)"><tspan x="0" y="0">Diseño de interacción y experiencia</tspan></text>
      <text class="st10" transform="translate(861.31 149.11)"><tspan x="0" y="0">Diseño de vídeo juegos</tspan></text>
      <text class="st10" transform="translate(897.99 162.36)"><tspan x="0" y="0">Diseño editorial</tspan></text>
      <text class="st10" transform="translate(831.31 175.61)"><tspan x="0" y="0">Diseño editorial y publicación</tspan></text>
      <text class="st10" transform="translate(747.38 188.86)"><tspan x="0" y="0">Diseño editorial: de la creación a la publicación</tspan></text>
      <text class="st10" transform="translate(777.38 202.11)"><tspan x="0" y="0">Diseño Gráfico para industrias culturales</tspan></text>
      <text class="st10" transform="translate(833.32 215.36)"><tspan x="0" y="0">Diseño Gráfico para las Artes</tspan></text>
      <text class="st10" transform="translate(819.81 228.61)"><tspan x="0" y="0">Diseño y Cultura Visual en Chile</tspan></text>
      <text class="st10" transform="translate(745.72 241.86)"><tspan x="0" y="0">Diseño y estrategia de publicidad y propaganda</tspan></text>
      <text class="st10" transform="translate(834.07 255.11)"><tspan x="0" y="0">Diseño y pensamiento crítico</tspan></text>
      <text class="st10" transform="translate(791.84 268.36)"><tspan x="0" y="0">Diseño y visualización de información</tspan></text>
      <text class="st10" transform="translate(860.19 281.61)"><tspan x="0" y="0">Diseño, afecto y género</tspan></text>
      <text class="st10" transform="translate(795.14 294.86)"><tspan x="0" y="0">Edición experimental y artes visuales</tspan></text>
      <text class="st10" transform="translate(724.04 308.11)"><tspan x="0" y="0">Editar-diseñar-publicar. Discursos de la arquitectura</tspan></text>
      <text class="st10" transform="translate(868.54 321.36)"><tspan x="0" y="0">Educación tipográfica</tspan></text>
      <text class="st10" transform="translate(747.92 334.61)"><tspan x="0" y="0">El discurso del afiche político: estética y praxis</tspan></text>
      <text class="st10" transform="translate(825.72 347.86)"><tspan x="0" y="0">Estética e industrias culturales</tspan></text>
      <text class="st10" transform="translate(850.74 361.11)"><tspan x="0" y="0">Experimentación editorial</tspan></text>
      <text class="st10" transform="translate(846.89 374.36)"><tspan x="0" y="0">Fundamentos fotográficos</tspan></text>
      <text class="st10" transform="translate(785.18 387.61)"><tspan x="0" y="0">Iconografía de la contracultura en Chile</tspan></text>
      <text class="st10" transform="translate(880.19 400.86)"><tspan x="0" y="0">Ilustración Creativa</tspan></text>
      <text class="st10" transform="translate(880.76 414.11)"><tspan x="0" y="0">Ilustración editorial</tspan></text>
      <g class="st9">
        <text class="st10" transform="translate(928.44 427.36)"><tspan x="0" y="0">Infografía</tspan></text>
      </g>
      <text class="st10" transform="translate(821.1 440.61)"><tspan x="0" y="0">Inteligencia Artificial Generativa</tspan></text>
      <text class="st10" transform="translate(839.65 453.86)"><tspan x="0" y="0">Introducción a la Ilustración</tspan></text>
      <text class="st10" transform="translate(800.2 467.11)"><tspan x="0" y="0">Introducción a la producción gráfica</tspan></text>
      <text class="st10" transform="translate(698.53 480.36)"><tspan x="0" y="0">Introducción al Desarrollo Front End con HTML, CSS y JS</tspan></text>
      <text class="st10" transform="translate(825.74 493.61)"><tspan x="0" y="0">Lean UX y metodologías ágiles</tspan></text>
      <text class="st10" transform="translate(818.5 506.86)"><tspan x="0" y="0">Libro de artista, teoría y práctica</tspan></text>
      <text class="st10" transform="translate(802.97 520.11)"><tspan x="0" y="0">Mapeo colectivo: Diseño y territorio</tspan></text>
      <text class="st10" transform="translate(894.07 533.36)"><tspan x="0" y="0">Narrativa gráfica</tspan></text>
      <text class="st10" transform="translate(912.44 546.61)"><tspan x="0" y="0">Oficio digital</tspan></text>
      <text class="st10" transform="translate(784.09 559.86)"><tspan x="0" y="0">Patrimonio intangible y cultural popular</tspan></text>
      <text class="st10" transform="translate(780.75 573.11)"><tspan x="0" y="0">Producción Editorial y usos tipográficos</tspan></text>
      <text class="st10" transform="translate(760.15 586.36)"><tspan x="0" y="0">Producción Gráfica 2.0 Editorial y Packaging</tspan></text>
      <text class="st10" transform="translate(764.04 599.61)"><tspan x="0" y="0">Programación para el Diseño de interacción</tspan></text>
      <text class="st10" transform="translate(707.95 612.86)"><tspan x="0" y="0">Programación web e introducción a la animación digital</tspan></text>
      <text class="st10" transform="translate(777.36 626.11)"><tspan x="0" y="0">Publicaciones editoriales experimentales</tspan></text>
      <text class="st10" transform="translate(675.15 639.36)"><tspan x="0" y="0">Puesta en valor desde el diseño patrimonio identidad y cultura</tspan></text>
      <text class="st10" transform="translate(674.57 652.61)"><tspan x="0" y="0">Representación arquitectónica mediante gráficas tradicionales</tspan></text>
      <text class="st10" transform="translate(879.27 665.86)"><tspan x="0" y="0">Taller de Ilustración</tspan></text>
      <g class="st9">
        <text class="st10" transform="translate(927.51 679.75)"><tspan x="0" y="0">Tipografía</tspan></text>
      </g>
      <text class="st10" transform="translate(830.93 692.36)"><tspan x="0" y="0">Tipografía: cultura y sociedad</tspan></text>
      <text class="st10" transform="translate(840.95 705.61)"><tspan x="0" y="0">Tipografía: Forma y función</tspan></text>
      <text class="st10" transform="translate(785.71 718.86)"><tspan x="0" y="0">Ux UI, Experiencia de usuario e interfaz</tspan></text>
      <text class="st10" transform="translate(792.93 732.11)"><tspan x="0" y="0">Vanguardias racionales-constructivas</tspan></text>
      <text class="st10" transform="translate(864.82 745.36)"><tspan x="0" y="0">Visualización de Datos</tspan></text>
      <text class="st10" transform="translate(681.15 762.73)"><tspan x="0" y="0">Enfoques investigativos en Diseño, innovación y creatividad</tspan></text>
      <text class="st10" transform="translate(728.84 784.23)"><tspan x="0" y="0">Lenguaje y composición fotográfica para el diseño</tspan></text>
      <text class="st11" transform="translate(506.5 196.48)"><tspan x="0" y="0">Ciencia y Tecnología</tspan></text>
      <text class="st11" transform="translate(506.5 329.36)"><tspan x="0" y="0">Morfología</tspan></text>
      <text class="st11" transform="translate(506.5 532.36)"><tspan x="0" y="0">Comunicación y Gestión del Diseño</tspan></text>
      <g class="st9">
        <text class="st8" transform="translate(54.6 578.12) rotate(-90)"><tspan class="st15" x="0" y="0">Electivos Visualidad y Medios</tspan><tspan class="st13" x="329.56" y="0"> </tspan></text>
      </g>
      <text class="st11" transform="translate(485.77 142.5)"><tspan x="0" y="0">Áreas</tspan></text>
    </g>
  </g>
</svg>