<?xml version="1.0" encoding="UTF-8"?>
<svg id="Capa_1" xmlns="http://www.w3.org/2000/svg" version="1.1" viewBox="0 0 912 905">
  <!-- Generator: Adobe Illustrator 30.3.0, SVG Export Plug-In . SVG Version: 2.1.3 Build 182)  -->
  <defs>
    <style>
      .st0 {
        fill: #fff;
      }

      .st0, .st1, .st2 {
        isolation: isolate;
      }

      .st0, .st2 {
        font-family: Arial-ItalicMT, Arial;
        font-size: 10px;
        font-style: italic;
      }

      .st3 {
        fill: #910e0e;
      }

      .st4 {
        fill: #efd3d9;
      }

      .st5 {
        fill: #ffc6cc;
      }
    </style>
  </defs>
  <path class="st5" d="M458,222.68c125.18,1.1,225.76,103.48,224.66,228.66-.34,38.43-10.44,76.15-29.37,109.6l-96.42-55.67c30.89-55.71,10.77-125.91-44.94-156.79-16.52-9.16-35.04-14.12-53.93-14.45v-111.34Z"/>
  <path class="st5" d="M651.29,564.4c-63.55,107.86-202.5,143.78-310.35,80.23-33.11-19.51-60.72-47.12-80.23-80.23l96.42-55.67c32.8,54.6,103.65,72.28,158.26,39.48,16.19-9.73,29.75-23.28,39.48-39.48l96.42,55.67Z"/>
  <path class="st5" d="M258.71,560.94c-61.63-108.96-23.27-247.26,85.69-308.89,33.45-18.92,71.17-29.03,109.6-29.37v111.34c-63.69,1.1-114.42,53.63-113.32,117.32.33,18.89,5.29,37.41,14.45,53.93l-96.42,55.67Z"/>
  <path class="st4" d="M458,107.35c38.55.23,76.79,6.97,113.09,19.94l-38.08,104.62c-24.1-8.53-49.45-13-75.01-13.23v-111.34Z"/>
  <path class="st4" d="M574.85,128.65c36.15,13.4,69.77,32.81,99.45,57.42l-71.57,85.29c-19.73-16.26-42.02-29.13-65.96-38.08l38.08-104.62Z"/>
  <path class="st3" d="M677.36,188.64c29.39,24.95,54.34,54.69,73.81,87.97l-96.42,55.67c-12.97-22.03-29.52-41.75-48.96-58.35l71.57-85.29Z"/>
  <path class="st4" d="M753.18,280.07c19.08,33.5,32.36,69.98,39.28,107.91l-109.64,19.33c-4.66-25.14-13.46-49.32-26.05-71.57l96.42-55.67Z"/>
  <path class="st4" d="M793.15,391.92c6.47,38,6.47,76.83,0,114.83l-109.64-19.33c4.22-25.21,4.22-50.95,0-76.17l109.64-19.33Z"/>
  <path class="st3" d="M792.45,510.7c-6.92,37.93-20.2,74.41-39.28,107.91l-96.42-55.67c12.59-22.25,21.39-46.44,26.05-71.57l109.64,19.33Z"/>
  <path class="st4" d="M751.18,622.07c-19.47,33.27-44.43,63.02-73.81,87.97l-71.57-85.29c19.44-16.6,35.99-36.32,48.96-58.35l96.42,55.67Z"/>
  <path class="st4" d="M674.3,712.61c-29.68,24.61-63.3,44.02-99.45,57.42l-38.08-104.62c23.95-8.95,46.24-21.82,65.96-38.08l71.57,85.29Z"/>
  <path class="st4" d="M571.09,771.39c-36.3,12.97-74.54,19.72-113.09,19.94v-111.34c25.56-.22,50.91-4.69,75.01-13.23l38.08,104.62Z"/>
  <path class="st3" d="M454,791.33c-38.55-.23-76.79-6.97-113.09-19.94l38.08-104.62c24.1,8.53,49.45,13,75.01,13.23v111.34Z"/>
  <path class="st3" d="M337.15,770.03c-36.15-13.4-69.77-32.81-99.45-57.42l71.57-85.29c19.73,16.26,42.02,29.13,65.96,38.08l-38.08,104.62Z"/>
  <path class="st3" d="M234.64,710.04c-29.39-24.95-54.34-54.69-73.81-87.97l96.42-55.67c12.97,22.03,29.52,41.75,48.96,58.35l-71.57,85.29Z"/>
  <path class="st4" d="M158.82,618.6c-19.08-33.5-32.36-69.98-39.28-107.91l109.64-19.33c4.66,25.14,13.46,49.32,26.05,71.57l-96.42,55.67Z"/>
  <path class="st4" d="M118.85,506.76c-6.47-38-6.47-76.83,0-114.83l109.64,19.33c-4.22,25.21-4.22,50.95,0,76.17l-109.64,19.33Z"/>
  <path class="st4" d="M119.55,387.98c6.92-37.93,20.2-74.41,39.28-107.91l96.42,55.67c-12.59,22.25-21.39,46.44-26.05,71.57l-109.64-19.33Z"/>
  <path class="st4" d="M160.82,276.61c19.47-33.27,44.43-63.02,73.81-87.97l71.57,85.29c-19.44,16.6-35.99,36.32-48.96,58.35l-96.42-55.67Z"/>
  <path class="st4" d="M237.7,186.07c29.68-24.61,63.3-44.02,99.45-57.42l38.08,104.62c-23.95,8.95-46.24,21.82-65.96,38.08l-71.57-85.29Z"/>
  <path class="st4" d="M340.91,127.29c36.3-12.97,74.54-19.72,113.09-19.94v111.34c-25.56.22-50.91,4.69-75.01,13.23l-38.08-104.62Z"/>
  <g class="st1">
    <text class="st2" transform="translate(505.54 173.85) rotate(-80)"><tspan x="0" y="0">Color</tspan></text>
  </g>
  <g class="st1">
    <text class="st2" transform="translate(590.26 216.65) rotate(-60)"><tspan x="0" y="0">Semiótica</tspan></text>
  </g>
  <g class="st1">
    <text class="st0" transform="translate(641.53 291.44) rotate(-40)"><tspan x="0" y="0">Tipografía: cultura y </tspan><tspan x="0" y="12">sociedad</tspan></text>
  </g>
  <g class="st1">
    <text class="st2" transform="translate(686.75 364.74) rotate(-20)"><tspan x="0" y="0">Color y percepción</tspan></text>
  </g>
  <g class="st1">
    <text class="st2" transform="translate(688.57 449.34)"><tspan x="0" y="0">Color aplicado al diseño</tspan></text>
  </g>
  <g class="st1">
    <text class="st0" transform="translate(682.67 531.94) rotate(20)"><tspan x="0" y="0">Tipografía: Forma y </tspan><tspan x="0" y="12">función</tspan></text>
  </g>
  <g class="st1">
    <text class="st2" transform="translate(641.53 602.14) rotate(40)"><tspan x="0" y="0">Diseño y visualización </tspan><tspan x="0" y="12">de información</tspan></text>
  </g>
  <g class="st1">
    <text class="st2" transform="translate(569.06 653.32) rotate(60)"><tspan x="0" y="0">Visualización de Datos</tspan></text>
  </g>
  <g class="st1">
    <text class="st2" transform="translate(496.07 709.18) rotate(80)"><tspan x="0" y="0">Infografía</tspan></text>
  </g>
  <g class="st1">
    <text class="st0" transform="translate(397.46 778.22) rotate(-80)"><tspan x="0" y="0">Diseño de ediciones</tspan><tspan x="0" y="12" xml:space="preserve"> experimentales.</tspan></text>
  </g>
  <g class="st1">
    <text class="st0" transform="translate(295.67 726.89) rotate(-60)"><tspan x="0" y="0">Diseño editorial</tspan></text>
  </g>
  <g class="st1">
    <text class="st0" transform="translate(205.93 657.38) rotate(-40)"><tspan x="0" y="0">Experimentación </tspan><tspan x="0" y="12">editorial</tspan></text>
  </g>
  <g class="st1">
    <text class="st2" transform="translate(154 558.64) rotate(-20)"><tspan x="0" y="0">Crítica cultural</tspan></text>
  </g>
  <g class="st1">
    <text class="st2" transform="translate(125.34 458.84)"><tspan x="0" y="0">Diseño y pensamiento </tspan><tspan x="0" y="12">crítico</tspan></text>
  </g>
  <g class="st1">
    <text class="st2" transform="translate(149.95 343.7) rotate(20)"><tspan x="0" y="0">Diseño y Cultura </tspan><tspan x="0" y="12">Visual en Chile</tspan></text>
  </g>
  <g class="st1">
    <text class="st2" transform="translate(197.65 239.06) rotate(40)"><tspan x="0" y="0">Diseño y Montaje de </tspan><tspan x="0" y="12">Exposiciones</tspan></text>
  </g>
  <g class="st1">
    <text class="st2" transform="translate(288.03 165.84) rotate(60)"><tspan x="0" y="0">El discurso del afiche </tspan><tspan x="0" y="12">político: estética y </tspan><tspan x="0" y="24">praxis</tspan></text>
  </g>
  <g class="st1">
    <text class="st2" transform="translate(410.59 128.65) rotate(80)"><tspan x="0" y="0">Muralismo en Chile: </tspan><tspan x="0" y="12">espacio</tspan><tspan x="0" y="24" xml:space="preserve"> público y </tspan><tspan x="0" y="36">contexto político</tspan></text>
  </g>
  <g>
    <path d="M535.18,309.23c.53.21,1.2.52,2,.99.99.59,1.57,1.24,1.8,1.88.21.58.15,1.24-.23,1.85-.39.62-.9.98-1.49,1.11-.81.18-1.8-.06-2.74-.62-.29-.17-.55-.34-.74-.52-.66,1.12-.98,1.68-1.64,2.79-.38-.22-.57-.33-.95-.56,1.6-2.77,2.4-4.15,3.99-6.92ZM534.21,313.18c.18.18.44.36.76.55,1.17.7,2.2.62,2.78-.34.56-.91.12-1.79-.98-2.44-.43-.26-.78-.42-.98-.48-.64,1.08-.95,1.63-1.59,2.71Z"/>
    <path d="M538.64,317.51c-.75,1.22-.25,2.23.68,2.84.67.44,1.14.6,1.58.69-.11.29-.16.44-.27.73-.42-.08-1.08-.3-1.89-.83-1.57-1.03-1.9-2.62-.96-4.1.93-1.48,2.63-2.05,4.17-1.03,1.73,1.14,1.24,2.84.64,3.72-.12.18-.24.3-.31.38-1.44-.98-2.17-1.46-3.64-2.41ZM541.83,318.7c.38-.55.71-1.6-.37-2.3-.97-.64-1.93-.08-2.4.48,1.12.72,1.67,1.08,2.77,1.82Z"/>
    <path d="M544.2,319.68c.39-.56.71-1.05.99-1.52.33.23.5.35.83.58-.25.38-.37.57-.62.95.02.01.03.02.04.03.68-.47,1.53-.47,2.16-.02.11.08.17.14.24.22-.23.32-.35.48-.58.81-.08-.09-.17-.17-.3-.26-.65-.47-1.45-.34-2.03.22-.1.1-.22.22-.33.37-.71,1.01-1.07,1.52-1.78,2.53-.36-.25-.54-.38-.9-.63.91-1.31,1.37-1.97,2.28-3.28Z"/>
    <path d="M548.75,327.72c-.32-.06-.94-.31-1.59-.8-1.46-1.11-1.72-2.77-.68-4.2,1.05-1.44,2.9-1.71,4.54-.46.54.41.92.9,1.07,1.21-.28.19-.42.29-.71.48-.13-.28-.38-.65-.88-1.02-1.14-.87-2.36-.54-3.08.43-.8,1.08-.56,2.28.4,3.02.5.38.92.51,1.26.6-.13.3-.2.44-.34.74Z"/>
    <path d="M551.75,326.91c-.87,1.13-.49,2.19.37,2.89.61.5,1.06.71,1.49.85-.14.28-.21.42-.34.7-.41-.12-1.04-.4-1.78-1.01-1.44-1.18-1.6-2.79-.51-4.17s2.82-1.77,4.24-.61c1.59,1.3.92,2.94.23,3.75-.14.16-.27.28-.35.35-1.32-1.12-1.99-1.67-3.35-2.75ZM554.79,328.41c.44-.51.87-1.51-.12-2.32-.89-.73-1.9-.28-2.43.24,1.03.82,1.54,1.24,2.55,2.08Z"/>
    <path d="M556.97,329.69c.49-.56.86-1.03,1.2-1.47.31.27.47.4.78.67-.25.31-.37.47-.62.78,0,0,.01,0,.02.02.82-.23,1.65-.05,2.41.63,1.13,1.02,1.15,2.67-.05,3.96-1.42,1.53-3.09,1.38-4.15.43-.59-.53-.9-1.25-.79-1.92,0,0-.01-.01-.02-.02-.83.95-1.25,1.42-2.08,2.37-.32-.28-.48-.42-.81-.7,1.64-1.9,2.46-2.86,4.1-4.76ZM556.8,331.58c-.1.12-.18.24-.25.36-.33.68-.16,1.5.43,2.03.87.78,1.98.57,2.88-.41.79-.86.98-2.04.08-2.84-.58-.52-1.46-.61-2.15-.16-.12.07-.25.17-.34.27-.26.3-.39.45-.66.75Z"/>
    <path d="M562.93,340.27c-.31-.1-.89-.42-1.47-.98-1.3-1.27-1.35-2.95-.13-4.24,1.23-1.3,3.08-1.34,4.54.1.48.47.79,1,.91,1.33-.3.16-.46.24-.76.39-.09-.29-.3-.69-.74-1.12-1.02-1-2.26-.82-3.1.05-.93.97-.85,2.19.01,3.04.45.44.85.62,1.16.75-.17.28-.26.42-.43.69Z"/>
    <path d="M569.89,337.05c-.25.25-.66.25-.97-.07-.28-.29-.28-.7-.02-.95.27-.26.68-.25.98.05.3.31.28.71.02.97ZM563.68,341.34c1.66-1.63,2.49-2.44,4.15-4.06.32.33.48.49.79.82-1.67,1.61-2.51,2.42-4.18,4.03-.3-.32-.46-.47-.76-.79Z"/>
    <path d="M571.59,345.54c-1.61,1.42-3.34.87-4.32-.2-1.1-1.2-1.13-2.91.2-4.17,1.41-1.34,3.18-1.13,4.35.15,1.21,1.33,1.1,3.05-.23,4.22ZM568.28,341.96c-.93.87-1.11,2.08-.38,2.87.71.78,1.94.74,2.92-.13.73-.65,1.32-1.88.42-2.87-.9-.99-2.14-.62-2.95.13ZM574.71,340.97c-.94-.02-1.41-.03-2.34-.04-.22-.24-.33-.36-.55-.6.81-.13,1.22-.19,2.04-.31.34.38.51.57.85.95Z"/>
    <path d="M573.49,345.76c.45-.39.82-.72,1.16-1.06.26.31.39.46.66.77-.28.27-.41.4-.69.67,0,0,0,.01.02.02.62-.12,1.5.08,2.16.88.55.67,1.02,2.02-.53,3.26-1.08.87-1.62,1.3-2.7,2.17-.27-.34-.41-.51-.69-.85,1.04-.85,1.56-1.27,2.59-2.11.73-.59,1.1-1.38.41-2.2-.48-.57-1.23-.7-1.8-.47-.13.05-.29.14-.42.26-1.06.9-1.6,1.35-2.66,2.26-.28-.33-.43-.5-.71-.83l3.21-2.76Z"/>
    <path d="M581.16,352.79c-.77,1.26-1.15,1.89-1.94,3.14-.23.34-.5.73-.72,1.02,0,0,0,.01.02.02.35-.12.78-.28,1.21-.4,1.39-.41,2.08-.61,3.48-1.01.28.39.42.59.7.98-1.75.4-2.61.61-4.34,1.04-2.08.53-3.21.7-4.15.49-.68-.15-1.14-.46-1.34-.65.22-.3.33-.45.54-.75.23.16.59.34.98.45.36.09.91.15,1.49.03.12-.02.21-.04.25-.08.05-.04.1-.11.18-.22,1.19-1.99,1.77-3,2.9-5.03.3.39.45.59.75.99Z"/>
    <path d="M582.22,362.08c.03.57.23,1.29.64,1.92.61.93,1.43,1.18,2.12.74.64-.41.77-1.04.48-2.23-.35-1.42-.3-2.54.64-3.17,1.04-.7,2.46-.28,3.4,1.16.49.76.68,1.42.72,1.86-.36.08-.53.11-.89.19-.03-.32-.14-.94-.58-1.61-.65-1.01-1.46-1.02-1.92-.72-.63.42-.64,1.06-.36,2.3.35,1.51.18,2.49-.82,3.12-1.06.66-2.47.42-3.56-1.24-.44-.68-.75-1.54-.76-2.07.35-.11.53-.16.88-.26Z"/>
    <path d="M587.22,367.23c-1.21.76-1.21,1.88-.65,2.83.4.68.75,1.03,1.11,1.3-.22.22-.34.32-.56.54-.34-.25-.83-.73-1.32-1.55-.94-1.6-.53-3.16.96-4.08s3.25-.7,4.19.87c1.04,1.76-.15,3.07-1.07,3.6-.19.11-.35.17-.45.21-.86-1.5-1.29-2.24-2.19-3.72ZM589.55,369.67c.59-.33,1.34-1.12.69-2.22-.59-.99-1.69-.9-2.36-.6.68,1.12,1.02,1.68,1.67,2.82Z"/>
    <path d="M591.45,371.45c.52-.29.95-.54,1.35-.81.19.35.29.52.48.87-.32.2-.48.3-.79.5,0,.01.01.02.02.03.65.04,1.39.3,1.87,1.22.4.76.28,1.55-.2,2.11,0,0,0,.01.01.02.38.02.71.12.99.27.41.21.72.52.99,1.05.37.74.46,2.07-1.35,2.95-1.23.6-1.84.9-3.07,1.49-.19-.39-.28-.58-.47-.97,1.18-.58,1.77-.87,2.95-1.46,1-.49,1.41-1.19.99-2.01-.29-.58-.92-.82-1.46-.76-.15.02-.34.07-.51.16-1.27.66-1.91.99-3.19,1.65-.2-.38-.3-.57-.5-.95,1.23-.65,1.85-.97,3.08-1.62.82-.43,1.21-1.13.8-1.89-.34-.62-1.05-.82-1.6-.73-.17.02-.34.08-.5.17-1.23.67-1.84,1.01-3.07,1.69-.21-.38-.31-.56-.52-.94,1.48-.83,2.22-1.24,3.7-2.06Z"/>
    <path d="M599.79,380.78c-.32.15-.7.02-.9-.39-.17-.37-.03-.75.29-.9.34-.16.73,0,.9.38.18.39.03.76-.3.92ZM592.52,382.78c2.1-.99,3.15-1.48,5.25-2.47.19.41.29.62.48,1.04-2.11.97-3.16,1.46-5.27,2.44-.18-.4-.28-.6-.47-1Z"/>
    <path d="M598.63,389.39c-1.99.81-3.44-.28-4.02-1.63-.65-1.51-.12-3.13,1.55-3.89,1.77-.8,3.38-.01,4.07,1.59.71,1.67.05,3.26-1.6,3.93ZM596.66,384.9c-1.16.51-1.73,1.6-1.3,2.6.42.97,1.59,1.35,2.8.85.91-.38,1.86-1.35,1.33-2.59-.53-1.24-1.82-1.31-2.83-.86ZM603.07,386.09c-.88-.33-1.32-.5-2.2-.81-.13-.3-.19-.45-.33-.76.81.15,1.22.23,2.03.39.2.47.3.71.5,1.18Z"/>
    <path d="M603.87,390.36c-.62.24-.93.36-1.56.6.24.61.35.92.58,1.54-.3.11-.45.17-.75.28-.23-.61-.34-.92-.58-1.53-1.17.45-1.75.67-2.92,1.12-.67.26-.97.6-.76,1.18.1.27.21.46.29.58-.29.13-.43.19-.72.32-.15-.17-.33-.47-.48-.87-.18-.48-.17-.93-.01-1.27.18-.39.61-.7,1.25-.95,1.18-.46,1.77-.69,2.95-1.16-.14-.36-.21-.54-.36-.91.3-.12.45-.18.75-.3.15.36.22.55.36.91.52-.2.78-.31,1.3-.51.27.38.4.57.67.96Z"/>
    <path d="M605.32,394.38c-.33.12-.7-.04-.86-.48-.14-.38.03-.75.37-.88.35-.13.72.06.87.46.15.41-.04.77-.38.89ZM597.89,395.7c2.18-.79,3.27-1.19,5.46-1.98.16.43.23.65.39,1.08-2.19.78-3.28,1.16-5.47,1.94-.15-.42-.22-.63-.37-1.04Z"/>
    <path d="M600.42,402.56c-.22-.24-.6-.79-.85-1.58-.56-1.75.16-3.27,1.84-3.85,1.69-.58,3.36.26,3.99,2.23.21.65.24,1.27.19,1.62-.34,0-.51,0-.86,0,.06-.3.05-.76-.14-1.35-.44-1.38-1.63-1.81-2.78-1.42-1.27.43-1.77,1.56-1.39,2.72.19.6.47.96.69,1.22-.28.17-.42.25-.7.42Z"/>
    <path d="M601.53,407.13c.27-.11.41-.17.68-.28,0-.01,0-.02-.01-.04-.53-.21-1.1-.73-1.34-1.57-.34-1.19.26-2.03,1.06-2.28,1.34-.41,2.48.65,3.12,3,.05-.01.07-.02.12-.03.46-.13,1.26-.5.9-1.75-.16-.57-.5-1.11-.88-1.46.24-.18.36-.27.59-.45.45.41.86,1.09,1.08,1.86.54,1.87-.52,2.65-1.65,2.95-.84.23-1.26.34-2.1.56-.49.13-.95.28-1.32.46-.11-.39-.16-.59-.27-.98ZM604.34,406.18c-.31-1.2-.9-2.49-1.98-2.18-.66.19-.83.75-.67,1.3.22.77.82,1.13,1.34,1.17.11,0,.24,0,.34-.03.39-.11.58-.16.97-.27Z"/>
  </g>
  <g>
    <path d="M366.33,602.45c-.45.03-1.29-.09-2.27-.47-2.27-.9-3.42-2.94-2.41-5.39.97-2.34,3.27-3.23,5.69-2.28.97.38,1.51.82,1.73,1.06-.22.28-.33.42-.55.7-.32-.33-.81-.67-1.46-.93-1.84-.72-3.51-.11-4.32,1.86-.75,1.83-.1,3.48,1.85,4.25.63.25,1.32.38,1.82.35-.03.34-.05.51-.08.85Z"/>
    <path d="M372.77,603.44c-.2.56-.37,1.07-.49,1.51-.38-.14-.56-.2-.94-.34.1-.36.16-.55.26-.91,0,0-.01,0-.02,0-.44.34-1.26.69-2.3.31-.91-.34-1.83-1.23-1.1-3.13.48-1.27.73-1.9,1.21-3.17.41.16.62.24,1.03.39-.45,1.2-.68,1.8-1.13,3.01-.39,1.03-.32,1.86.64,2.21.71.26,1.37-.02,1.72-.39.11-.12.22-.29.28-.47.49-1.34.73-2.01,1.22-3.35.41.15.62.23,1.04.37-.57,1.59-.86,2.38-1.43,3.97Z"/>
    <path d="M375.32,601.79c.23-.64.41-1.2.55-1.73.36.13.55.19.91.32-.14.44-.2.65-.34,1.09.02,0,.03,0,.05.02.52-.65,1.3-.89,2-.66.12.04.2.08.28.13-.13.38-.19.57-.32.94-.1-.06-.2-.11-.35-.16-.74-.25-1.44.1-1.85.8-.07.13-.15.28-.21.45-.41,1.17-.61,1.75-1.01,2.92-.42-.15-.63-.22-1.05-.37.53-1.51.79-2.26,1.32-3.77Z"/>
    <path d="M381.16,607.96c.06-.29.08-.43.14-.72-.01,0-.02,0-.04-.01-.47.33-1.23.51-2.06.24-1.19-.39-1.53-1.38-1.26-2.18.45-1.33,1.93-1.63,4.17-.9.01-.05.02-.07.04-.11.15-.46.28-1.32-.9-1.7-.54-.18-1.15-.2-1.64-.09,0-.3-.01-.44-.02-.74.57-.14,1.33-.1,2.05.13,1.76.57,1.82,1.86,1.47,2.97-.26.83-.39,1.24-.66,2.07-.15.48-.28.96-.32,1.36-.39-.12-.58-.19-.97-.31ZM381.9,605.09c-1.15-.39-2.52-.63-2.87.44-.22.65.14,1.11.69,1.29.76.25,1.4-.05,1.72-.46.07-.09.13-.2.16-.3.12-.38.18-.58.31-.96Z"/>
    <path d="M391.23,602.12c-.78,2.7-1.16,4.05-1.94,6.74-.14.5-.29,1.06-.37,1.45-.39-.11-.58-.17-.97-.28.09-.39.14-.59.23-.98,0,0-.01,0-.02,0-.51.53-1.37.79-2.34.5-1.43-.43-2.17-1.91-1.65-3.59.56-1.84,2.11-2.61,3.52-2.19.88.27,1.36.84,1.5,1.37,0,0,.01,0,.02,0,.39-1.33.58-2,.97-3.33.42.12.63.18,1.04.3ZM388.76,606.69c.04-.13.08-.3.08-.44.03-.69-.39-1.39-1.18-1.63-1.09-.33-2.02.39-2.39,1.62-.34,1.12-.05,2.23,1.11,2.58.72.22,1.51-.04,1.93-.74.08-.13.13-.26.18-.42.11-.39.17-.58.28-.97Z"/>
    <path d="M396.05,610.63c-.15.58-.27,1.1-.35,1.55-.38-.1-.58-.15-.96-.25.07-.37.11-.56.18-.93,0,0-.01,0-.02,0-.4.38-1.19.8-2.24.52-.94-.25-1.92-1.05-1.37-3.01.37-1.31.55-1.96.92-3.27.42.12.63.18,1.06.29-.34,1.24-.51,1.86-.85,3.1-.29,1.06-.15,1.88.83,2.14.72.2,1.35-.15,1.67-.55.1-.13.19-.31.24-.5.36-1.38.55-2.07.91-3.44.42.11.64.17,1.06.28-.42,1.63-.64,2.45-1.06,4.09Z"/>
    <path d="M398.43,608.75c.17-.66.3-1.24.39-1.77.37.09.56.14.93.23-.1.45-.14.67-.24,1.12.02,0,.03,0,.05.01.45-.69,1.21-1.01,1.93-.84.12.03.2.06.29.11-.09.39-.14.58-.23.97-.1-.05-.21-.09-.36-.12-.75-.18-1.42.23-1.76.97-.06.13-.12.29-.17.47-.3,1.2-.45,1.8-.75,3-.43-.11-.64-.16-1.07-.27.39-1.55.59-2.32.98-3.87Z"/>
    <path d="M405.6,606.03c-.74.54-1.11.8-1.85,1.33-.3-.07-.46-.11-.76-.18.58-.57.87-.85,1.45-1.42.47.11.7.16,1.16.27ZM401.54,613.62c.53-2.26.8-3.39,1.33-5.65.43.1.64.15,1.06.25-.52,2.26-.79,3.39-1.31,5.66-.44-.1-.65-.15-1.09-.25Z"/>
    <path d="M407.77,615.01c.03-.29.04-.44.06-.73-.01,0-.02,0-.04,0-.43.38-1.16.64-2.02.45-1.22-.27-1.65-1.22-1.47-2.03.31-1.37,1.75-1.82,4.04-1.32,0-.05.01-.07.02-.12.1-.47.14-1.34-1.06-1.6-.55-.12-1.16-.08-1.63.08-.04-.29-.05-.44-.09-.73.55-.19,1.3-.24,2.04-.08,1.8.39,1.99,1.66,1.75,2.8-.18.85-.26,1.28-.44,2.13-.1.49-.18.98-.18,1.38-.4-.08-.6-.12-.99-.21ZM408.22,612.08c-1.17-.27-2.55-.37-2.8.73-.15.67.25,1.09.81,1.21.78.17,1.38-.19,1.65-.64.06-.1.11-.21.13-.32.08-.39.13-.59.21-.98Z"/>
    <path d="M414.55,610.45c.26,1.45.4,2.17.67,3.61.07.4.13.88.17,1.24.01,0,.02,0,.03,0,.17-.32.38-.74.6-1.12.72-1.26,1.07-1.88,1.78-3.14.45.08.68.12,1.14.2-.93,1.52-1.39,2.28-2.34,3.79-1.13,1.82-1.86,2.72-2.72,3.2-.62.34-1.2.42-1.48.42-.04-.37-.07-.55-.11-.92.29-.03.69-.13,1.06-.32.33-.17.79-.5,1.14-.98.07-.1.12-.17.13-.23.01-.06,0-.15-.03-.28-.5-2.27-.74-3.4-1.21-5.67.47.09.7.14,1.17.22Z"/>
    <path d="M421.64,617.57c.5-3.19.75-4.79,1.26-7.98.46.07.69.11,1.15.18.8,1.78,1.21,2.66,2.05,4.44.48,1.03.85,1.94,1.14,2.81.01,0,.02,0,.03,0,.05-1.08.16-2.06.33-3.31.18-1.34.28-2.01.46-3.35.4.05.6.08,1,.13-.43,3.2-.64,4.81-1.07,8.01-.44-.06-.66-.09-1.1-.15-.85-1.77-1.27-2.66-2.08-4.44-.45-.98-.86-1.97-1.14-2.9-.02,0-.02,0-.04,0-.09,1.02-.22,1.98-.42,3.31-.21,1.37-.31,2.05-.52,3.41-.41-.06-.62-.09-1.03-.16Z"/>
    <path d="M433.22,619.13c0-.29,0-.44,0-.74-.02,0-.02,0-.04,0-.39.41-1.09.74-1.96.64-1.23-.15-1.75-1.05-1.65-1.88.18-1.39,1.56-1.98,3.88-1.7,0-.05,0-.07.01-.12.05-.48.02-1.35-1.2-1.49-.55-.07-1.15.03-1.61.24-.06-.29-.1-.43-.16-.72.53-.25,1.27-.36,2.02-.27,1.82.22,2.13,1.46,2,2.62-.09.86-.14,1.29-.24,2.16-.05.5-.08.99-.05,1.39-.4-.04-.6-.07-1-.11ZM433.39,616.17c-1.19-.16-2.57-.12-2.71.99-.08.68.35,1.06.92,1.13.79.09,1.35-.32,1.58-.79.05-.1.09-.22.1-.33.05-.4.07-.6.11-1Z"/>
    <path d="M436.32,615.45c.07-.68.12-1.27.14-1.81.38.04.57.06.95.1-.03.46-.05.68-.08,1.14.02,0,.03,0,.05,0,.35-.75,1.05-1.17,1.78-1.11.12.01.21.03.3.06-.04.4-.05.59-.09.99-.11-.03-.22-.06-.37-.07-.77-.07-1.36.44-1.59,1.21-.04.14-.08.31-.1.48-.12,1.23-.18,1.85-.31,3.08-.44-.04-.66-.07-1.09-.11.16-1.59.25-2.38.41-3.97Z"/>
    <path d="M440.43,615.84c.06-.68.1-1.27.11-1.81.38.03.57.05.95.08-.02.46-.04.68-.06,1.14.02,0,.03,0,.05,0,.34-.75,1.03-1.19,1.76-1.13.12,0,.21.03.31.06-.03.4-.05.6-.08.99-.11-.03-.22-.05-.37-.06-.77-.06-1.36.46-1.57,1.23-.04.14-.08.31-.09.49-.1,1.23-.15,1.85-.26,3.08-.44-.04-.66-.06-1.1-.09.14-1.59.21-2.39.35-3.98Z"/>
    <path d="M447.52,620.37c-.02-.29-.03-.44-.04-.74-.02,0-.02,0-.04,0-.37.43-1.05.8-1.92.74-1.24-.08-1.8-.96-1.74-1.79.1-1.4,1.45-2.06,3.78-1.91,0-.05,0-.07,0-.12.03-.48-.05-1.35-1.28-1.43-.56-.04-1.15.09-1.59.32-.08-.28-.12-.43-.2-.71.52-.27,1.24-.43,2-.38,1.83.12,2.2,1.35,2.14,2.51-.05.87-.07,1.3-.12,2.17-.03.5-.03.99.02,1.39-.4-.02-.61-.03-1.01-.06ZM447.53,617.4c-1.2-.1-2.57.01-2.65,1.14-.05.68.41,1.04.97,1.08.79.05,1.33-.4,1.53-.88.04-.1.08-.22.08-.33.02-.4.04-.6.06-1.01Z"/>
    <path d="M451.84,613.12c-.03.67-.05,1-.08,1.67.62.03.93.04,1.56.07-.01.32-.02.48-.03.8-.62-.02-.94-.04-1.56-.07-.06,1.25-.08,1.88-.14,3.13-.03.72.16,1.14.78,1.16.29.01.5-.02.64-.05,0,.32.01.48.02.79-.22.07-.56.12-.99.1-.52-.02-.93-.21-1.18-.5-.29-.33-.39-.85-.35-1.53.06-1.26.09-1.9.16-3.16-.37-.02-.56-.03-.93-.05.02-.32.03-.48.04-.8.37.02.56.03.93.05.03-.56.04-.83.07-1.39.43-.09.64-.13,1.07-.23Z"/>
    <path d="M455.81,613.3c0,.35-.28.64-.71.63-.38-.01-.64-.31-.63-.67.01-.37.31-.65.7-.64.4.01.65.31.64.68ZM454.35,620.69c.08-2.32.12-3.48.2-5.8.43.02.65.02,1.09.04-.07,2.32-.11,3.48-.18,5.8-.44-.01-.67-.02-1.11-.04Z"/>
    <path d="M457.86,614.99c.44,1.32.66,1.97,1.12,3.29.19.53.35,1.01.46,1.49.02,0,.02,0,.04,0,.15-.48.33-.95.54-1.48.49-1.3.73-1.95,1.21-3.25.45,0,.68,0,1.14,0-.95,2.32-1.44,3.47-2.43,5.78-.42,0-.64,0-1.06-.02-.89-2.34-1.32-3.51-2.17-5.85.46.01.7.02,1.16.03Z"/>
    <path d="M466.72,620.84c-.04-.29-.06-.44-.1-.73-.02,0-.02,0-.04,0-.34.46-.99.87-1.86.88-1.24,0-1.87-.83-1.86-1.67,0-1.4,1.3-2.16,3.63-2.17,0-.05,0-.07,0-.12,0-.48-.15-1.34-1.38-1.33-.56,0-1.14.17-1.56.44-.1-.28-.15-.42-.25-.7.5-.31,1.21-.52,1.96-.52,1.83-.01,2.29,1.19,2.31,2.35.01.87.02,1.3.03,2.17,0,.5.04.99.12,1.39-.4,0-.61,0-1.01.01ZM466.52,617.88c-1.2-.01-2.56.19-2.56,1.32,0,.68.48,1.01,1.05,1,.79,0,1.29-.49,1.46-.98.04-.11.06-.23.06-.34,0-.4,0-.6-.01-1.01Z"/>
    <path d="M469.25,619.72c.33.2.92.4,1.47.39.81-.02,1.17-.42,1.16-.9-.02-.5-.34-.78-1.16-1.04-1.09-.35-1.62-.91-1.63-1.61-.02-.94.74-1.72,2.03-1.75.61-.02,1.14.13,1.48.31-.1.31-.15.47-.25.78-.24-.14-.68-.31-1.24-.3-.64.02-.99.39-.98.82.01.48.38.69,1.17.95,1.06.35,1.61.84,1.64,1.7.03,1.02-.77,1.77-2.23,1.81-.67.02-1.29-.13-1.73-.36.1-.32.16-.49.26-.81Z"/>
    <path d="M481.78,611.72c.19,2.8.29,4.2.48,7,.04.51.09,1.1.15,1.49-.4.03-.6.04-1,.07-.05-.4-.07-.6-.12-1-.01,0-.02,0-.03,0-.3.67-1.01,1.21-2.01,1.26-1.48.08-2.66-1.05-2.75-2.81-.1-1.92,1.07-3.17,2.53-3.26.91-.05,1.56.33,1.86.78,0,0,.01,0,.02,0-.09-1.38-.13-2.08-.22-3.46.43-.03.64-.04,1.07-.07ZM481.04,616.85c0-.13-.03-.31-.08-.44-.2-.66-.83-1.17-1.65-1.12-1.13.07-1.74,1.06-1.68,2.34.06,1.17.72,2.11,1.91,2.04.74-.04,1.39-.55,1.54-1.36.03-.15.03-.29.02-.46-.03-.4-.04-.6-.07-1Z"/>
    <path d="M484.62,617.33c.14,1.42,1.14,1.93,2.24,1.84.79-.07,1.26-.24,1.66-.45.1.29.15.44.26.74-.37.2-1.02.46-1.99.54-1.88.16-3.09-.93-3.22-2.68-.13-1.75.83-3.2,2.57-3.34,1.95-.17,2.62,1.44,2.72,2.5.02.21.01.38,0,.49-1.69.16-2.54.23-4.24.37ZM487.77,616.3c-.05-.67-.44-1.68-1.66-1.58-1.1.09-1.5,1.11-1.53,1.85,1.28-.1,1.92-.15,3.19-.27Z"/>
    <path d="M489.68,611.05c.43-.04.64-.06,1.07-.11.35,3.39.53,5.08.88,8.47-.44.05-.66.07-1.11.11-.34-3.39-.51-5.08-.84-8.47Z"/>
    <path d="M502.07,617.86c-.37.25-1.15.55-2.18.69-2.38.32-4.35-.9-4.66-3.53-.3-2.51,1.24-4.42,3.78-4.76,1.02-.14,1.7-.02,2,.08-.05.35-.08.53-.14.88-.43-.13-1.02-.19-1.71-.1-1.93.26-3.06,1.62-2.8,3.72.24,1.96,1.59,3.09,3.64,2.81.66-.09,1.32-.32,1.73-.58.14.31.2.47.34.79Z"/>
    <path d="M508.29,614.17c.36,2.12-1.04,3.3-2.5,3.53-1.64.26-3.07-.7-3.34-2.51-.28-1.92.85-3.24,2.49-3.5,1.7-.27,3.05.73,3.35,2.48ZM503.55,614.99c.19,1.26,1.09,2.09,2.17,1.92,1.05-.17,1.68-1.23,1.47-2.52-.16-.97-.86-2.12-2.14-1.91-1.28.2-1.66,1.42-1.49,2.51Z"/>
    <path d="M509.44,612.67c-.1-.59-.2-1.07-.32-1.54.38-.07.57-.1.95-.17.09.37.14.56.23.93h.02c.2-.6.79-1.25,1.76-1.43.82-.15,2.17.07,2.55,2.03.26,1.36.4,2.04.66,3.4-.44.09-.66.13-1.1.21-.25-1.31-.37-1.97-.62-3.29-.17-.92-.67-1.62-1.69-1.43-.71.13-1.17.71-1.25,1.32-.03.14-.02.32.01.5.25,1.37.37,2.06.61,3.44-.44.08-.66.12-1.1.19-.29-1.67-.44-2.5-.73-4.17Z"/>
    <path d="M521.89,611.51c.47,2.1-.87,3.35-2.32,3.66-1.63.34-3.11-.54-3.47-2.34-.38-1.9.69-3.28,2.31-3.62,1.69-.36,3.09.57,3.48,2.3ZM517.18,612.57c.25,1.25,1.2,2.03,2.27,1.81,1.04-.22,1.62-1.32,1.34-2.59-.21-.96-.97-2.07-2.24-1.8-1.27.27-1.59,1.5-1.37,2.59Z"/>
    <path d="M528.12,612.86c-.25.21-.83.55-1.64.74-1.81.43-3.25-.46-3.64-2.2-.39-1.74.56-3.28,2.47-3.74.63-.15,1.22-.13,1.55-.07-.02.34-.03.51-.05.85-.29-.08-.72-.11-1.3.03-1.35.32-1.85,1.45-1.58,2.63.3,1.31,1.38,1.91,2.56,1.63.62-.15.99-.4,1.26-.6.15.29.22.43.37.72Z"/>
    <path d="M528.82,605.24c.09.34-.09.69-.51.8-.37.09-.71-.12-.79-.47-.09-.36.12-.71.5-.81.39-.1.71.12.81.48ZM529.45,612.75c-.56-2.25-.85-3.38-1.41-5.63.42-.11.64-.16,1.06-.27.57,2.25.86,3.38,1.43,5.63-.43.11-.65.17-1.08.27Z"/>
    <path d="M531.26,607.92c-.15-.58-.29-1.05-.45-1.51.37-.1.56-.15.93-.24.12.36.17.53.29.89.01,0,.02,0,.04,0,.18-.62.59-1.26,1.55-1.53.79-.22,1.52.08,1.96.66,0,0,.01,0,.02,0,.09-.36.25-.67.44-.91.28-.35.62-.6,1.17-.76.77-.22,2.05-.07,2.62,1.86.39,1.31.58,1.97.97,3.28-.42.12-.63.19-1.05.31-.37-1.26-.55-1.89-.92-3.15-.31-1.07-.91-1.59-1.76-1.35-.6.17-.95.73-.99,1.28,0,.15,0,.35.06.53.39,1.38.58,2.07.97,3.45-.42.12-.63.18-1.06.3-.37-1.34-.56-2.01-.93-3.35-.25-.89-.84-1.42-1.64-1.2-.66.18-1.01.82-1.04,1.37-.02.17,0,.35.05.52.36,1.35.54,2.03.9,3.38-.42.11-.63.17-1.06.28-.43-1.64-.64-2.46-1.07-4.1Z"/>
    <path d="M541.56,601.64c.11.34-.06.7-.47.82-.37.11-.71-.08-.82-.43-.11-.36.08-.71.46-.83.39-.12.72.09.83.43ZM542.57,609.11c-.68-2.22-1.01-3.33-1.69-5.55.42-.13.63-.19,1.05-.32.69,2.22,1.03,3.33,1.71,5.55-.43.13-.64.2-1.07.33Z"/>
    <path d="M545.19,605.46c.46,1.35,1.56,1.62,2.63,1.27.76-.25,1.18-.53,1.53-.82.17.26.25.39.42.66-.32.29-.91.68-1.84.99-1.81.59-3.25-.19-3.78-1.86-.53-1.67.09-3.3,1.76-3.85,1.88-.61,2.91.79,3.25,1.8.07.2.1.37.12.48-1.63.55-2.45.82-4.09,1.34ZM548.06,603.73c-.2-.64-.82-1.53-1.99-1.15-1.06.35-1.23,1.43-1.09,2.15,1.23-.39,1.85-.6,3.08-1.01Z"/>
    <path d="M550.13,602.21c-.19-.57-.37-1.03-.56-1.47.37-.13.55-.19.92-.32.15.35.22.53.37.89,0,0,.01,0,.02,0,.1-.62.59-1.36,1.53-1.7.79-.28,2.18-.28,2.86,1.59.48,1.3.71,1.95,1.19,3.26-.42.15-.64.23-1.06.38-.45-1.26-.68-1.89-1.13-3.15-.32-.88-.92-1.49-1.91-1.14-.69.24-1.06.89-1.04,1.51,0,.14.03.32.09.49.46,1.32.69,1.98,1.15,3.3-.43.15-.64.22-1.06.37-.55-1.6-.82-2.4-1.37-4Z"/>
    <path d="M556.79,596.37c.24.62.35.94.59,1.56.59-.22.89-.34,1.48-.56.12.3.17.45.29.75-.59.23-.89.34-1.48.57.44,1.17.66,1.76,1.11,2.93.25.67.6.98,1.19.75.27-.1.47-.22.58-.3.13.29.2.43.33.72-.17.16-.48.34-.88.49-.49.19-.95.18-1.3.02-.4-.18-.7-.62-.94-1.26-.44-1.19-.66-1.78-1.11-2.97-.35.13-.53.2-.89.33-.11-.3-.17-.45-.28-.75.35-.13.53-.2.88-.33-.19-.52-.29-.78-.49-1.3.36-.25.55-.38.91-.64Z"/>
    <path d="M566.16,597.53c.82,1.98-.3,3.46-1.69,4.02-1.56.63-3.19.02-3.86-1.69-.7-1.81.13-3.35,1.69-3.98,1.62-.65,3.18.01,3.86,1.65ZM561.65,599.41c.47,1.18,1.54,1.79,2.57,1.38,1-.4,1.39-1.58.89-2.8-.37-.91-1.32-1.87-2.54-1.38-1.22.49-1.33,1.77-.92,2.79Z"/>
  </g>
  <g>
    <path d="M301.74,442.29c-.08,1.34-.11,2.01-.16,3.36,1.17.04,1.75.07,2.91.11.05-1.47.09-2.21.18-3.68.35.02.52.03.87.05-.11,1.9-.16,2.84-.21,4.75-3.23-.1-4.85-.15-8.08-.25.06-1.92.1-2.87.21-4.78.35.02.52.03.87.05-.08,1.45-.12,2.17-.17,3.62,1.02.04,1.53.06,2.55.1.05-1.35.08-2.03.16-3.37.34.02.52.03.86.05Z"/>
    <path d="M299.88,439.83c.52-.32.78-.48,1.31-.8.34-.21.65-.37.99-.55,0-.02,0-.02,0-.04-.33-.23-.61-.46-.91-.69-.46-.39-.69-.59-1.16-.98.04-.49.07-.73.11-1.22,1.04.96,1.56,1.43,2.61,2.36,1.27-.76,1.9-1.13,3.18-1.86-.05.5-.07.75-.12,1.24-.55.31-.83.46-1.38.78-.35.21-.69.39-1.06.57,0,0,0,.01,0,.02.33.23.62.47.95.72.49.39.74.59,1.24.97-.03.48-.05.73-.08,1.21-1.13-.93-1.69-1.41-2.8-2.37-1.2.75-1.79,1.13-2.98,1.9.03-.51.05-.76.09-1.27Z"/>
    <path d="M302.24,434.59c-.74-.08-1.34-.11-1.89-.14.04-.41.06-.61.11-1.01.4.02.6.03.99.06,0-.01,0-.02,0-.03-.65-.54-.99-1.32-.86-2.33.18-1.5,1.52-2.46,3.26-2.22,2.07.29,2.91,1.73,2.74,3.14-.1.79-.51,1.45-1.12,1.74,0,.01,0,.02,0,.03,1.25.14,1.88.21,3.14.34-.05.43-.07.64-.11,1.06-2.5-.26-3.75-.39-6.25-.64ZM303.89,433.65c.15.02.3,0,.43,0,.75-.12,1.32-.72,1.42-1.51.14-1.16-.67-1.94-1.99-2.12-1.15-.15-2.23.37-2.37,1.55-.09.77.34,1.54,1.1,1.84.13.05.28.11.42.12.4.04.59.07.99.11Z"/>
    <path d="M304.41,426.95c1.42.19,2.14-.66,2.31-1.75.13-.78.08-1.26-.02-1.7.31-.02.47-.03.78-.05.1.41.18,1.09.02,2.03-.3,1.83-1.61,2.75-3.34,2.51s-2.95-1.54-2.66-3.34c.32-2.01,2.07-2.25,3.12-2.06.21.04.37.09.48.12-.3,1.69-.44,2.54-.69,4.24ZM304.18,423.61c-.66-.13-1.74,0-1.95,1.25-.18,1.13.72,1.77,1.43,1.97.19-1.29.3-1.93.52-3.22Z"/>
    <path d="M304.09,421.09c-.67-.12-1.25-.22-1.79-.28.07-.39.11-.58.18-.97.45.07.68.11,1.13.18,0-.02,0-.03,0-.05-.71-.42-1.07-1.18-.92-1.93.03-.13.05-.21.1-.31.39.08.59.12.98.2-.05.11-.08.22-.11.37-.16.78.29,1.44,1.04,1.73.14.05.3.11.47.14,1.22.23,1.82.35,3.04.58-.08.42-.12.64-.2,1.06-1.57-.29-2.36-.44-3.93-.73Z"/>
    <path d="M301.81,415.01c.35.07.57.4.48.84-.08.39-.42.61-.78.54-.36-.08-.58-.43-.5-.83.09-.42.44-.62.79-.54ZM308.82,417.79c-2.27-.48-3.41-.72-5.68-1.2.09-.44.14-.66.24-1.1,2.27.49,3.4.74,5.67,1.24-.09.43-.14.64-.23,1.07Z"/>
    <path d="M305.32,414.01c-.58-.13-1.07-.23-1.54-.3.09-.38.13-.58.22-.96.37.07.55.1.92.16,0-.01,0-.02,0-.04-.46-.46-.83-1.14-.58-2.14.2-.82.83-1.32,1.56-1.41,0,0,0-.01,0-.02-.27-.27-.45-.56-.56-.86-.16-.43-.19-.86-.04-1.43.21-.79,1.03-1.82,2.97-1.27,1.31.37,1.97.56,3.29.94-.12.41-.17.61-.29,1.02-1.27-.35-1.9-.53-3.17-.88-1.07-.3-1.84-.06-2.07.81-.17.61.14,1.21.59,1.52.13.09.3.17.49.22,1.39.36,2.08.54,3.47.9-.11.41-.16.62-.26,1.03-1.35-.34-2.02-.51-3.37-.85-.9-.23-1.65.03-1.86.86-.17.68.23,1.3.7,1.59.14.1.31.16.48.2,1.36.32,2.04.48,3.41.81-.1.41-.15.62-.24,1.04-1.65-.38-2.48-.57-4.13-.95Z"/>
    <path d="M309.64,403.63c1.37.39,2.21-.35,2.53-1.39.23-.75.25-1.23.22-1.67.31.02.47.03.78.06.04.42.02,1.1-.26,2-.55,1.75-1.98,2.48-3.66,1.99s-2.7-1.94-2.16-3.66c.6-1.93,2.36-1.91,3.38-1.58.21.07.36.14.46.19-.53,1.62-.79,2.43-1.28,4.07ZM309.88,400.31c-.64-.22-1.73-.25-2.1.96-.34,1.08.46,1.84,1.14,2.14.37-1.24.56-1.86.96-3.09Z"/>
    <path d="M309.92,397.74c-.57-.19-1.04-.34-1.5-.45.13-.38.19-.57.32-.94.37.1.56.15.93.25,0,0,0-.01,0-.02-.42-.47-.7-1.32-.36-2.28.29-.81,1.2-1.88,3.06-1.19,1.3.48,1.95.73,3.25,1.21-.15.41-.23.61-.38,1.02-1.26-.46-1.89-.69-3.14-1.15-.88-.32-1.74-.24-2.09.75-.25.69.03,1.4.52,1.77.11.09.27.17.44.23,1.32.45,1.98.68,3.3,1.14-.14.41-.21.62-.35,1.03-1.6-.54-2.41-.81-4.01-1.35Z"/>
    <path d="M309.75,388.75c.62.24.93.37,1.55.61.24-.6.35-.9.59-1.49.3.12.45.18.74.3-.24.59-.36.89-.59,1.49,1.17.46,1.75.69,2.91,1.14.67.26,1.13.22,1.35-.35.11-.26.15-.47.17-.61.3.1.45.15.75.25,0,.23-.07.56-.22.95-.19.47-.49.79-.84.93-.4.16-.92.09-1.56-.15-1.18-.46-1.77-.68-2.95-1.14-.14.36-.21.53-.34.89-.3-.11-.45-.17-.75-.28.14-.36.2-.54.34-.89-.52-.2-.78-.3-1.3-.5.06-.45.09-.68.14-1.13Z"/>
    <path d="M319.03,385.87c-.28-.09-.42-.13-.7-.21,0,.01,0,.02-.01.03.28.49.4,1.24.07,2.02-.47,1.11-1.47,1.37-2.24,1.05-1.3-.53-1.52-2.04-.57-4.19-.04-.02-.07-.03-.11-.05-.44-.19-1.29-.41-1.78.75-.22.53-.3,1.14-.22,1.64-.3-.01-.44-.02-.74-.03-.09-.59,0-1.35.31-2.07.74-1.74,2.04-1.66,3.11-1.19l1.99.88c.46.2.92.38,1.31.47-.16.36-.24.54-.4.9ZM316.25,384.84c-.5,1.09-.84,2.43.2,2.87.63.26,1.11-.05,1.33-.56.3-.72.06-1.36-.32-1.72-.08-.08-.18-.15-.28-.19-.37-.16-.55-.24-.92-.4Z"/>
    <path d="M321.72,379.52c0,.32-.1.97-.44,1.69-.77,1.62-2.33,2.2-3.95,1.47-1.63-.74-2.28-2.46-1.41-4.28.29-.6.68-1.06.94-1.27.25.23.37.35.62.58-.25.18-.55.5-.81,1.05-.61,1.27-.03,2.38,1.07,2.88,1.22.56,2.34.1,2.85-.98.27-.56.3-.99.32-1.33.32.07.48.11.79.18Z"/>
    <path d="M316.38,374.04c.32.15.46.53.26.93-.18.36-.56.48-.88.32-.33-.16-.46-.56-.27-.93.19-.38.57-.49.9-.33ZM322.47,378.47c-2.08-1.03-3.12-1.55-5.2-2.58.2-.4.3-.6.5-1,2.07,1.05,3.11,1.57,5.18,2.61-.2.39-.29.58-.48.97Z"/>
    <path d="M323.77,369.71c1.87,1.05,1.94,2.84,1.26,4.11-.76,1.42-2.35,2-3.98,1.16-1.73-.89-2.12-2.61-1.31-4.12.84-1.56,2.49-2.02,4.04-1.15ZM321.53,373.97c1.13.59,2.33.36,2.83-.57.49-.92.04-2.06-1.1-2.69-.86-.47-2.21-.62-2.83.54-.63,1.16.13,2.21,1.11,2.72ZM318.43,368.28c.3.88.45,1.32.76,2.2-.15.28-.23.43-.38.71-.39-.72-.59-1.08-.98-1.81.24-.44.36-.66.6-1.1Z"/>
    <path d="M323.34,367.86c-.52-.3-.95-.53-1.39-.73.2-.35.3-.52.5-.86.34.17.52.26.86.43,0,0,0-.01.01-.02-.32-.54-.43-1.43.09-2.31.44-.74,1.54-1.62,3.24-.58,1.18.72,1.77,1.09,2.96,1.81-.23.37-.34.56-.56.93-1.15-.69-1.72-1.04-2.86-1.73-.8-.48-1.66-.57-2.2.34-.38.63-.24,1.38.17,1.84.09.11.23.22.39.31,1.21.7,1.81,1.05,3.02,1.75-.22.38-.33.56-.54.94-1.47-.84-2.21-1.26-3.68-2.1Z"/>
    <path d="M327.3,358.37c1.45.3,2.17.45,3.6.77.4.1.86.23,1.2.34,0,0,0-.01.01-.02-.23-.29-.53-.64-.79-1-.86-1.16-1.29-1.74-2.14-2.92.27-.39.4-.59.67-.98.98,1.5,1.47,2.24,2.47,3.71,1.21,1.77,1.76,2.77,1.88,3.72.09.69-.04,1.23-.15,1.48-.36-.1-.53-.15-.89-.26.08-.27.12-.67.08-1.07-.04-.36-.17-.9-.48-1.41-.06-.1-.11-.18-.16-.21-.05-.03-.13-.06-.27-.09-2.27-.44-3.42-.65-5.71-1.04.27-.41.4-.62.67-1.03Z"/>
    <path d="M340.05,350.05c-.09.43-.43,1.17-1.04,1.98-1.42,1.87-3.62,2.47-5.77.92-2.05-1.48-2.37-4-.72-6.16.66-.87,1.26-1.28,1.56-1.43.2.3.3.44.5.74-.41.22-.9.61-1.34,1.19-1.24,1.63-1.06,3.44.66,4.69,1.6,1.17,3.31.96,4.55-.66.4-.53.71-1.14.81-1.61.32.13.47.2.79.33Z"/>
    <path d="M337.92,346.73c-.54-.42-1-.78-1.45-1.09.25-.31.37-.46.62-.77.37.27.55.41.91.68.01-.02.02-.02.03-.04-.43-.71-.39-1.55.1-2.13.08-.1.15-.16.23-.23.31.25.46.38.77.63-.09.07-.17.15-.27.27-.5.61-.42,1.41.1,2.02.1.11.21.23.35.35.96.78,1.45,1.16,2.41,1.94-.27.34-.41.51-.67.84-1.25-.99-1.88-1.49-3.13-2.48Z"/>
    <path d="M338.77,338.91c.11.93.16,1.39.28,2.32-.21.25-.31.37-.52.62-.24-.79-.35-1.18-.58-1.98.33-.39.49-.58.82-.97ZM343.64,346.02c-1.78-1.49-2.67-2.23-4.46-3.72.29-.35.44-.52.73-.87,1.77,1.5,2.66,2.25,4.43,3.75-.28.33-.42.5-.7.84Z"/>
    <path d="M340.78,337.87c.5.44.75.66,1.25,1.1.43-.49.64-.73,1.08-1.22.24.21.36.32.6.54-.43.48-.65.72-1.07,1.21.94.83,1.41,1.24,2.35,2.07.54.48.99.58,1.39.13.19-.22.31-.4.37-.52.25.2.37.29.62.49-.08.21-.26.5-.54.82-.34.38-.74.58-1.11.6-.43.02-.9-.22-1.42-.67-.96-.83-1.44-1.24-2.39-2.08-.25.29-.38.44-.63.73-.24-.21-.37-.31-.61-.52.25-.29.38-.44.63-.73-.42-.36-.63-.55-1.05-.91.21-.41.32-.61.53-1.02Z"/>
    <path d="M343.63,334.77c.26.24.29.64-.02.97-.27.3-.68.32-.94.07-.28-.25-.29-.67,0-.98.29-.32.69-.32.96-.07ZM348.27,340.72c-1.72-1.56-2.58-2.34-4.29-3.91.31-.34.46-.5.77-.84,1.71,1.57,2.56,2.36,4.27,3.93-.3.32-.45.48-.74.81Z"/>
    <path d="M353.1,335.32c-.1.31-.41.89-.98,1.48-1.27,1.31-2.94,1.36-4.24.15-1.3-1.22-1.35-3.07.08-4.54.47-.48,1-.8,1.32-.92.16.3.24.45.4.76-.29.09-.69.3-1.12.74-1,1.02-.81,2.26.06,3.1.97.93,2.19.84,3.04-.02.44-.45.62-.85.75-1.17.28.17.42.25.69.42Z"/>
    <path d="M356.57,332.22c-.23-.19-.34-.28-.57-.47-.01.01-.02.02-.03.03.07.56-.12,1.31-.74,1.91-.88.86-1.9.71-2.5.12-.99-.99-.6-2.49,1.15-4.13-.03-.03-.05-.05-.08-.09-.33-.35-1.03-.88-1.95.01-.42.41-.73.95-.86,1.45-.27-.13-.4-.19-.67-.31.15-.59.54-1.26,1.11-1.81,1.38-1.34,2.56-.77,3.36.08.6.63.89.95,1.49,1.58.35.37.7.71,1.03.94-.29.28-.44.41-.73.69ZM354.41,330.19c-.9.83-1.75,1.95-.96,2.75.48.49,1.05.38,1.45-.01.57-.55.6-1.25.39-1.72-.05-.1-.11-.21-.19-.29-.28-.29-.42-.44-.7-.73Z"/>
  </g>
</svg>